<svg width="90" height="90" viewBox="0 0 90 90" fill="none" xmlns="http://www.w3.org/2000/svg">
<g clip-path="url(#clip0_103_1198)">
<path d="M45 90C69.8528 90 90 69.8528 90 45C90 20.1472 69.8528 0 45 0C20.1472 0 0 20.1472 0 45C0 69.8528 20.1472 90 45 90Z" fill="#627EEA"/>
<path d="M46.4006 11.25V36.1969L67.486 45.6187L46.4006 11.25Z" fill="white" fill-opacity="0.602"/>
<path d="M46.4006 11.25L25.3125 45.6187L46.4006 36.1969V11.25Z" fill="white"/>
<path d="M46.4006 61.7854V78.7364L67.5 49.5454L46.4006 61.7854Z" fill="white" fill-opacity="0.602"/>
<path d="M46.4006 78.7364V61.7826L25.3125 49.5454L46.4006 78.7364Z" fill="white"/>
<path d="M46.4006 57.8617L67.486 45.6189L46.4006 36.2026V57.8617Z" fill="white" fill-opacity="0.2"/>
<path d="M25.3125 45.6189L46.4006 57.8617V36.2026L25.3125 45.6189Z" fill="white" fill-opacity="0.602"/>
</g>
<defs>
<clipPath id="clip0_103_1198">
<rect width="90" height="90" fill="white"/>
</clipPath>
</defs>
</svg>
