<svg width="275" height="134" viewBox="0 0 275 134" fill="none" xmlns="http://www.w3.org/2000/svg">
<g clip-path="url(#clip0_26_1172)">
<path d="M-0.537109 -70.4839V204.484H275V-70.4839H-0.537109Z" fill="#235379"/>
<path d="M128.59 36.2002C127.416 36.5367 127.838 38.5642 127.838 39.5032V49.752V87.7476V96.6216C127.838 97.7589 127.613 99.5037 129.341 99.1563C130.656 98.8913 130.218 96.8678 130.218 95.8717V85.4979V47.5023V38.5034C130.218 37.4076 130.247 35.7259 128.59 36.2002ZM180.441 48.3772C179.118 48.8265 177.738 49.5649 176.946 50.7519C175.346 53.1555 176.186 56.7675 178.687 58.1848C180.819 59.3934 183.867 59.7521 186.202 58.9722C186.937 58.726 187.661 58.4648 188.331 58.0698C188.685 57.8599 189.149 57.4236 189.583 57.4286C190.289 57.4374 190.812 58.4873 191.462 58.7497C191.994 58.9647 192.653 58.876 193.215 58.876H196.347C196.841 58.876 197.628 59.0172 198.06 58.7285C198.669 58.3223 198.067 57.6011 197.724 57.2624C196.945 56.4963 196.121 55.7738 195.345 55.0014C195.009 54.6677 194.512 54.3056 194.298 53.8766C194.067 53.4156 194.552 53.0473 194.844 52.7517C195.604 51.9815 196.364 51.2612 195.444 50.2732C194.89 49.6807 193.903 48.4833 193.09 48.312C192.307 48.1467 191.584 49.0301 191.086 49.5014C190.886 49.6909 190.639 49.995 190.335 49.995C189.826 49.995 189.295 49.2025 188.957 48.8883C187.928 47.9308 186.799 47.0262 185.837 46.0006C185.437 45.5724 185.021 44.987 185.348 44.3908C185.825 43.5218 186.97 43.565 187.705 44.0207C188.402 44.4533 188.779 45.2207 189.458 45.6615C190.419 46.2846 191.998 46.0029 193.09 46.0025C193.535 46.0024 194.043 46.0526 194.444 45.8204C195.032 45.4802 194.983 44.8302 194.867 44.2527C194.613 42.9687 193.974 41.8846 192.965 41.0438C190.043 38.6113 184.996 38.4921 181.693 40.1749C179.434 41.3262 178.041 43.9235 178.997 46.3774C179.302 47.1628 179.858 47.7839 180.441 48.3772ZM153.388 48.8771C153.925 49.6622 154.232 50.6229 154.59 51.5018C155.188 52.9638 155.793 54.4239 156.413 55.8763C156.743 56.6512 156.981 57.7136 157.57 58.3348C158.305 59.1097 159.56 58.876 160.527 58.876C161.305 58.876 162.34 59.0572 163.02 58.6073C163.872 58.0436 164.196 56.6537 164.56 55.7513C165.485 53.4497 166.516 51.1893 167.415 48.8771C167.648 49.6643 167.54 50.5598 167.54 51.3769V55.7513C167.54 56.4975 167.284 57.8461 167.758 58.4723C168.095 58.916 168.67 58.8747 169.169 58.876C170.248 58.8772 171.347 58.9322 172.425 58.871C172.877 58.8447 173.352 58.7198 173.498 58.2386C173.625 57.8211 173.552 57.3062 173.552 56.8762V54.1265V45.1276V41.878C173.552 41.3843 173.659 40.7306 173.46 40.2668C173.171 39.6 172.261 39.7532 171.674 39.7532H167.916C167.237 39.7532 166.498 39.6623 165.917 40.0848C164.972 40.7721 164.639 42.3485 164.194 43.3778C163.389 45.2424 162.638 47.1298 161.852 49.0021C161.388 50.1016 160.802 51.2141 160.527 52.3767C159.247 49.9799 158.316 47.2723 157.296 44.7526C156.872 43.7082 156.445 42.6631 155.999 41.628C155.715 40.9689 155.447 40.2799 154.766 39.9353C154.303 39.702 153.764 39.7532 153.263 39.7532H150.633C149.736 39.7532 147.798 39.3661 147.359 40.3836C147.152 40.8593 147.251 41.4966 147.251 42.0029V45.5025V53.7516C147.251 55.0827 147.069 56.5613 147.277 57.8761C147.339 58.2573 147.518 58.6248 147.89 58.7835C148.26 58.9397 148.738 58.876 149.13 58.876H151.634C152.209 58.876 152.912 58.9447 153.24 58.3623C153.63 57.6724 153.388 56.3975 153.388 55.6264V48.8771ZM209.622 52.2518C209.457 51.2964 208.957 50.3966 208.595 49.5021C207.799 47.5357 206.937 45.5942 206.141 43.6278C205.725 42.6021 205.342 40.9078 204.474 40.1805C203.455 39.326 201.229 39.7532 199.979 39.7532C199.499 39.7532 198.774 39.6277 198.426 40.0429C197.967 40.5909 198.533 41.4646 198.751 42.0029C199.463 43.7592 200.195 45.5119 200.946 47.2523C202.087 49.9012 203.179 52.5785 204.262 55.2514C204.674 56.2688 205.059 57.9523 206.012 58.5898C206.5 58.9172 207.057 58.876 207.619 58.876H210.374C211.308 58.876 212.506 59.0672 213.38 58.6698C214.035 58.371 214.253 57.7449 214.508 57.1262C214.853 56.2938 215.187 55.4539 215.544 54.6265C217.026 51.1886 218.461 47.7218 219.867 44.2527C220.222 43.3768 220.576 42.4971 220.948 41.628C221.109 41.2518 221.408 40.8115 221.328 40.3836C221.201 39.7076 220.42 39.7541 219.892 39.7532H216.887C216.283 39.7535 215.664 39.7265 215.157 40.1099C214.357 40.7146 214.049 42.1131 213.665 43.0028C212.737 45.1571 211.893 47.3476 210.965 49.5021C210.583 50.3888 210.315 51.5623 209.622 52.2518ZM81.4978 62.0006C83.0962 60.877 84.2718 59.181 85.7561 57.9136C88.4241 55.6351 91.9899 54.784 95.3999 55.5639C96.7648 55.8763 98.0006 56.4763 99.1572 57.2512C100.242 57.9773 101.222 58.941 101.984 60.0008C106.262 65.9452 103.676 74.3867 96.7776 76.9901C92.7541 78.5099 88.4535 77.4388 85.2553 74.6954C83.3058 73.0243 81.5604 71.0308 79.7444 69.2135C76.3527 65.8202 72.9594 62.4268 69.5633 59.0372C66.8394 56.3188 64.2784 53.1733 60.7073 51.5405C54.5274 48.7147 46.8246 49.8853 41.9326 54.6627C40.4522 56.1075 39.3008 57.8723 38.4529 59.7509C37.7705 61.2632 37.3404 62.9793 37.1827 64.6253C36.4772 71.9882 40.4116 79.1624 47.4314 81.942C49.6772 82.8307 51.9332 83.0019 54.3199 82.9982C58.756 82.9907 62.794 80.6659 65.8423 77.6238C66.5101 76.9576 67.1849 76.2977 67.8456 75.624C68.0681 75.3978 68.4465 75.1003 68.4465 74.7491C68.4465 74.3529 67.9723 74.0017 67.7208 73.7492C67.0564 73.0818 66.3991 72.4019 65.7171 71.752C65.451 71.4983 65.1233 71.1308 64.7151 71.272C64.2309 71.4383 63.8137 72.0244 63.4627 72.3744C62.5875 73.2481 61.7279 74.1417 60.8325 74.9941C59.1366 76.6102 56.7577 77.5076 54.4451 77.7275C49.3889 78.21 44.4164 74.6379 42.8908 69.8747C41.8394 66.5913 42.4106 62.9293 44.4143 60.1258C48.3257 54.654 56.1996 53.81 61.2083 58.2723C63.046 59.9096 64.7264 61.7619 66.4685 63.5004L76.7385 73.7492C79.3472 76.3527 81.8228 79.4123 85.1299 81.1509C93.4277 85.5116 104.154 81.9108 108.01 73.3743C111.194 66.3276 108.899 57.3987 102.539 52.9316C100.303 51.3607 97.7271 50.4303 95.0242 50.1076C93.4465 49.9193 91.7042 49.8907 90.1397 50.2102C86.262 51.0023 83.1567 52.8461 80.3706 55.6264C79.7864 56.21 79.196 56.7875 78.6178 57.3762C78.3953 57.6024 78.0169 57.8998 78.0169 58.2511C78.0169 58.6885 78.5894 59.0972 78.8677 59.3759L81.4978 62.0006Z" fill="white"/>
<path d="M183.697 51.6701C183.111 51.6779 182.673 52.5078 182.596 53.0019C182.45 53.968 183.087 54.7281 184.073 54.7418C184.593 54.7481 185.854 54.5843 186.033 53.9752C186.116 53.6951 185.872 53.4524 185.694 53.2731C185.284 52.8611 184.302 51.662 183.697 51.6701Z" fill="#235379"/>
<path d="M156.644 74.8014C154.619 75.0676 152.673 75.2738 150.883 76.3825C145.431 79.7571 144.892 88.5698 149.756 92.7093C153.174 95.6177 159.127 95.819 163.157 94.1904C165.106 93.4017 167.141 91.8669 167.696 89.7472C167.868 89.0922 168.111 88.0861 167.612 87.5262C166.992 86.83 165.499 87.1225 164.66 87.1225C163.957 87.1225 163.052 86.9737 162.407 87.3049C161.424 87.8086 160.95 89.1172 160.026 89.7734C157.965 91.237 154.962 90.2908 153.697 88.2473C151.403 84.539 153.818 78.6947 158.648 79.5396C159.618 79.7096 160.487 80.3808 161.094 81.1232C161.595 81.7343 161.939 82.5055 162.781 82.6992C163.785 82.9292 165.01 82.748 166.038 82.748C166.491 82.748 167.008 82.803 167.402 82.5305C167.979 82.1293 167.921 81.4831 167.823 80.8732C167.637 79.7446 167.19 78.7197 166.402 77.8735C164.103 75.4038 159.938 74.3702 156.644 74.8014ZM180.316 74.8014C177.741 75.1389 175.216 75.4563 173.177 77.2699C169.129 80.872 168.683 88.3623 172.681 92.2356C175.209 94.6853 179.274 95.494 182.695 95.0853C185.236 94.7828 187.823 94.0979 189.698 92.2356C193.327 88.631 193.429 81.6031 189.906 77.8948C187.948 75.8338 185.188 75.0501 182.445 74.8626C181.72 74.8127 181.046 74.7064 180.316 74.8014ZM204.237 89.8721V80.2483H206.366C206.711 80.2483 207.14 80.2983 207.445 80.1008C207.772 79.8883 207.843 79.4821 207.864 79.1234C207.912 78.2897 208.209 76.2775 207.465 75.7163C206.837 75.2426 205.486 75.4988 204.738 75.4988H197.725C196.976 75.4988 195.505 75.2201 194.898 75.735C194.597 75.9913 194.598 76.3862 194.593 76.7487C194.582 77.5773 194.56 78.4197 194.596 79.2484C194.614 79.6421 194.699 80.0108 195.102 80.1733C195.699 80.4145 196.587 80.237 197.224 80.2483C197.534 80.2545 197.902 80.2483 198.097 80.5382C198.311 80.8582 198.226 81.3831 198.226 81.7481V84.4978V88.1224C198.226 88.5461 198.345 89.211 198.097 89.5822C197.902 89.8722 197.534 89.8659 197.224 89.8721C196.587 89.8834 195.699 89.7059 195.102 89.9471C194.699 90.1096 194.614 90.4783 194.596 90.872C194.555 91.8094 194.448 92.948 194.622 93.8692C194.833 94.9891 196.64 94.6216 197.474 94.6216H204.738C205.486 94.6216 206.837 94.8778 207.465 94.4041C207.76 94.1804 207.842 93.8467 207.864 93.4967C207.917 92.6431 207.996 91.5894 207.841 90.747C207.784 90.4383 207.636 90.1584 207.355 90.0009C206.604 89.5797 205.084 89.8721 204.237 89.8721ZM216.887 83.7479C218.771 85.9539 220.315 88.5935 221.938 90.997C222.601 91.9782 223.216 93.138 224.048 93.9829C225.154 95.104 227.588 94.6216 229.036 94.6216C229.613 94.6216 230.529 94.7403 230.822 94.0954C231.012 93.6742 230.914 93.0718 230.914 92.6218V89.4972V80.1233V77.4986C230.914 77.0724 230.998 76.5337 230.839 76.1288C230.663 75.6813 230.233 75.5326 229.787 75.5038C228.67 75.4351 227.525 75.4926 226.406 75.4988C225.938 75.5013 225.419 75.4951 225.103 75.9025C224.801 76.2925 224.903 76.9124 224.903 77.3736V80.7482V86.3726C224.017 85.6426 223.41 84.4465 222.773 83.4979C221.62 81.7793 220.451 80.0583 219.249 78.3735C218.64 77.5211 218.088 76.285 217.137 75.7663C216.604 75.4751 215.971 75.4988 215.384 75.4988H212.503C211.975 75.4988 211.329 75.4276 210.968 75.9025C210.686 76.275 210.75 76.8099 210.75 77.2486V80.1233V90.1221V92.7468C210.75 93.1793 210.676 93.7155 210.898 94.1079C211.182 94.6129 211.739 94.6191 212.253 94.6216C213.296 94.6266 214.341 94.6266 215.384 94.6216C215.846 94.6191 216.335 94.6303 216.635 94.2179C216.962 93.7704 216.887 93.143 216.887 92.6218V89.2472V83.7479Z" fill="white"/>
<path d="M179.94 79.5648C176.345 80.3872 175.411 85.4041 177.119 88.2475C177.858 89.4774 179.035 90.1985 180.441 90.4235C180.994 90.5122 181.522 90.5097 182.069 90.386C182.927 90.1935 183.763 89.9161 184.427 89.3136C186.68 87.2701 186.62 82.7031 184.443 80.6359C183.309 79.5585 181.449 79.2198 179.94 79.5648Z" fill="#235379"/>
</g>
<defs>
<clipPath id="clip0_26_1172">
<rect width="275" height="134" fill="white"/>
</clipPath>
</defs>
</svg>
