<svg width="1076" height="494" viewBox="0 0 1076 494" fill="none" xmlns="http://www.w3.org/2000/svg">
<path d="M470.712 371.366C459.815 355.897 444.028 343.014 430.661 329.647C426.623 325.608 420.331 316.647 413.973 316.647C406.68 316.647 398.62 328.311 393.947 332.984C378.661 348.27 363.909 364.408 347.221 378.175C300.617 416.574 233.344 424.267 178.672 399.219C158.557 390.007 142.436 376.924 126.941 361.354C112.705 347.052 100.274 330.114 92.6509 311.29C81.9556 284.889 76.6538 252.934 80.714 224.512C93.5487 134.681 180.425 72.1411 268.788 83.1418C336.24 91.5408 378.962 146.109 423.986 191.136L580.853 348.003C618.952 386.102 655.248 429.574 701.006 458.645C766.173 500.064 855.737 504.086 926.294 474.815C951.843 464.218 975.54 449.082 996.384 430.959C1025.42 405.694 1047.65 370.666 1060.73 334.653C1096.61 235.979 1066.21 117.604 983.033 52.0738C947.755 24.2833 906.586 9.85155 862.88 2.69575C785.314 -10.0005 705.262 23.3404 650.942 77.6581L620.904 107.696C616.866 111.738 609.573 116.902 608.138 122.716C606.636 128.695 613.928 134.072 617.566 137.735C628.097 148.338 638.61 158.972 649.274 169.434C653.095 173.188 658.202 179.592 664.293 177.492C671.335 175.067 677.543 166.211 682.65 161.098C695.399 148.35 707.832 135.143 721.032 122.864C753.323 92.8425 798.881 77.094 842.854 81.2794C915.681 88.2099 982.149 145.924 994.181 219.506C1000.32 257.157 992.178 292.749 975.09 326.309C965.928 344.349 951.944 361.103 936.307 373.936C882.955 417.676 808.11 426.12 747.733 391.609C721.716 376.74 701.941 353.944 680.981 332.984L485.731 137.735C444.245 96.2402 405.879 50.5768 352.228 24.6888C256.308 -21.5987 133.523 1.68276 62.142 80.9957C31.7916 114.717 12.5119 156.796 4.21634 201.149C-11.0498 282.77 15.5858 372.601 76.8758 429.624C132.275 481.157 211.236 502.734 285.476 490.786C325.343 484.378 365.561 466.955 397.285 442.007C423.869 421.097 446.848 395.23 470.712 371.366Z" fill="white" fill-opacity="0.5"/>
</svg>
