<svg width="74" height="99" viewBox="0 0 74 99" fill="none" xmlns="http://www.w3.org/2000/svg">
<g clip-path="url(#clip0_63_1755)">
<path d="M24.7099 88.7526C35.5861 88.7526 44.8481 84.9304 52.4958 77.2859C60.1436 69.6415 63.9658 60.3795 63.9625 49.5C63.9593 38.6205 60.137 29.3585 52.4958 21.714C44.8547 14.0696 35.5927 10.2474 24.7099 10.2474H22.1339C21.3162 10.2474 20.5393 10.3291 19.8033 10.4927C24.4646 15.8899 28.084 21.9217 30.6616 28.5882C33.2392 35.2546 34.5263 42.2252 34.5231 49.5C34.5198 56.7748 33.231 63.7471 30.6567 70.4167C28.0823 77.0864 24.4646 83.1166 19.8033 88.5073C20.5393 88.6709 21.3162 88.7526 22.1339 88.7526H24.7099ZM24.7099 98.5658C20.3757 98.5658 16.143 98.0146 12.0117 96.9123C7.88033 95.8099 3.93544 94.1531 0.177002 91.9419C7.7822 87.526 13.7731 81.5563 18.1498 74.0329C22.5265 66.5095 24.7132 58.3318 24.7099 49.5C24.7066 40.6682 22.5183 32.4905 18.1449 24.9671C13.7715 17.4437 7.7822 11.474 0.177002 7.05809C3.93871 4.85012 7.88524 3.19497 12.0166 2.09263C16.1479 0.990283 20.379 0.437475 24.7099 0.434204C31.4973 0.434204 37.8759 1.723 43.8456 4.30059C49.8152 6.87818 55.008 10.3733 59.4239 14.7859C63.8399 19.1986 67.3366 24.3914 69.9142 30.3643C72.4918 36.3373 73.779 42.7158 73.7757 49.5C73.7724 56.2842 72.4836 62.6627 69.9093 68.6357C67.335 74.6086 63.8399 79.8014 59.4239 84.214C55.008 88.6267 49.8152 92.1234 43.8456 94.7043C37.8759 97.2852 31.4973 98.5723 24.7099 98.5658Z" fill="#235379"/>
</g>
<defs>
<clipPath id="clip0_63_1755">
<rect width="73.5929" height="99" fill="white"/>
</clipPath>
</defs>
</svg>
